<svg width="197" height="210" viewBox="0 0 197 210" fill="none" xmlns="http://www.w3.org/2000/svg">
    <defs>
        <linearGradient id="animatedGradient" x1="100%" y1="100%" x2="0%" y2="0%" gradientUnits="userSpaceOnUse">
            <stop offset="0%" stop-color="#418ae0">
                <animate attributeName="stop-color" values="#418ae0;#56a0d8;#dc8bc3;#56a0d8;#418ae0;#56a0d8;#dc8bc3;#56a0d8;#418ae0" dur="2s" repeatCount="indefinite"/>
            </stop>
            <stop offset="25%" stop-color="#56a0d8">
                <animate attributeName="stop-color" values="#56a0d8;#dc8bc3;#56a0d8;#418ae0;#56a0d8;#dc8bc3;#56a0d8;#418ae0;#56a0d8" dur="2s" repeatCount="indefinite"/>
            </stop>
            <stop offset="50%" stop-color="#dc8bc3">
                <animate attributeName="stop-color" values="#dc8bc3;#56a0d8;#418ae0;#56a0d8;#dc8bc3;#56a0d8;#418ae0;#56a0d8;#dc8bc3" dur="2s" repeatCount="indefinite"/>
            </stop>
            <stop offset="75%" stop-color="#56a0d8">
                <animate attributeName="stop-color" values="#56a0d8;#418ae0;#56a0d8;#dc8bc3;#56a0d8;#418ae0;#56a0d8;#dc8bc3;#56a0d8" dur="2s" repeatCount="indefinite"/>
            </stop>
            <stop offset="100%" stop-color="#418ae0">
                <animate attributeName="stop-color" values="#418ae0;#56a0d8;#dc8bc3;#56a0d8;#418ae0;#56a0d8;#dc8bc3;#56a0d8;#418ae0" dur="2s" repeatCount="indefinite"/>
            </stop>
        </linearGradient>
    </defs>
    <path d="M8.39258 170.635L91.9316 179.781V206.716C91.9316 209.107 89.4486 210.698 87.2734 209.693L8.02539 173.981L7.49023 173.74C5.83639 172.928 6.56651 170.43 8.39258 170.635ZM188.604 170.635C190.431 170.43 191.161 172.927 189.507 173.735L109.724 209.689C107.617 210.663 105.22 209.204 105.072 206.935L105.065 206.712V179.777L188.604 170.635ZM84.9316 200.96V186.057L41.2461 181.273L84.9316 200.96ZM112.065 186.052V200.956L155.742 181.272L112.065 186.052ZM88.3984 166.177L2.92578 157.125C0.608174 156.87 -0.688365 154.361 0.381836 152.34L0.492188 152.146L43.8115 88.207L88.3984 166.177ZM196.509 152.146C197.773 154.196 196.468 156.858 194.075 157.125L108.603 166.177L153.186 88.207L196.509 152.146ZM9.84668 150.818L75.5293 157.774L43.3086 101.429L9.84668 150.818ZM121.47 157.774L187.154 150.818L153.688 101.429L121.47 157.774ZM98.499 157.396L57.2812 85.3115H139.716L98.499 157.396ZM98.498 143.293L127.65 92.3115H69.3467L98.498 143.293ZM194.51 60.333C195.606 59.6768 196.997 60.4647 196.997 61.7402V128.517C196.997 130.174 194.822 130.789 193.956 129.378L163.057 79.1963L194.51 60.333ZM0 61.7402C0 60.4647 1.39151 59.6768 2.4873 60.333L33.9414 79.1924L3.04102 129.374L2.95605 129.5C2.03778 130.745 0 130.118 0 128.517V61.7402ZM172.729 81.5566L189.997 109.598V71.2021L172.729 81.5566ZM7 109.594L24.2656 81.5527L7 71.2002V109.594ZM98.499 0C100.653 0.000146618 102.808 1.04166 104.093 3.125L143.319 72.1865H53.6777L92.9043 3.125C94.1889 1.04149 96.3444 0 98.499 0ZM69.2031 4.81543C72.1538 3.1298 75.4085 6.48823 73.6279 9.38379L40.8232 68.0107L7.3623 48.041C6.32839 47.4175 6.29596 45.9241 7.30957 45.2598L67.7461 5.7666L69.2031 4.81543ZM123.369 9.38379C121.589 6.48823 124.843 3.1298 127.794 4.81543L189.688 45.2559C190.701 45.9203 190.673 47.4136 189.635 48.0371L156.174 68.0107L123.369 9.38379ZM65.7041 65.1865H131.293L98.498 7.4502L65.7041 65.1865ZM18.3184 46.4277L38.2295 58.3105L60.1865 19.0684L18.3184 46.4277ZM158.767 58.3105L178.678 46.4248L136.809 19.0674L158.767 58.3105Z" fill="url(#animatedGradient)"/>
</svg>